<?xml version="1.0" standalone="no"?>
<!DOCTYPE svg PUBLIC "-//W3C//DTD SVG 20010904//EN"
 "http://www.w3.org/TR/2001/REC-SVG-20010904/DTD/svg10.dtd">
<svg version="1.0" xmlns="http://www.w3.org/2000/svg"
 width="434" height="127" viewBox="0 0 434 127" fill="none">

<g transform="translate(0.000000,41.000000) scale(0.100000,-0.100000)"
fill="#000000" stroke="none">
<path d="M2130 205 l0 -195 39 0 39 0 4 100 c3 86 6 102 25 121 27 28 70 19
83 -17 6 -14 10 -66 10 -115 l0 -89 35 0 35 0 0 120 c0 106 -2 122 -20 140
-11 11 -31 22 -45 26 -35 9 -95 -4 -102 -22 -13 -34 -23 -9 -23 56 l0 70 -40
0 -40 0 0 -195z"/>
<path d="M10 195 l0 -185 40 0 40 0 0 75 0 75 85 0 85 0 0 -75 0 -75 35 0 35
0 0 185 0 185 -35 0 -35 0 0 -80 0 -80 -85 0 -85 0 0 80 0 80 -40 0 -40 0 0
-185z"/>
<path d="M464 291 c-25 -11 -64 -58 -64 -77 0 -9 12 -14 34 -14 25 0 38 6 50
25 27 41 76 27 76 -22 0 -20 -5 -23 -35 -23 -106 0 -170 -85 -110 -145 29 -29
104 -35 129 -10 8 8 17 15 20 15 3 0 6 -7 6 -15 0 -11 11 -15 41 -15 33 0 40
3 35 16 -3 9 -6 60 -6 114 0 89 -2 102 -23 126 -19 22 -34 28 -78 30 -30 2
-64 0 -75 -5z m98 -181 c-5 -36 -20 -50 -53 -50 -20 0 -30 6 -35 22 -9 28 29
60 65 56 21 -2 25 -7 23 -28z"/>
<path d="M743 281 c-35 -22 -51 -68 -33 -100 12 -23 49 -44 95 -55 56 -14 73
-46 34 -67 -18 -9 -27 -7 -50 10 -16 12 -43 21 -63 21 -35 0 -35 -1 -24 -26
17 -36 58 -54 123 -54 50 0 60 4 87 30 25 26 29 36 24 63 -8 38 -36 62 -92 76
-46 12 -69 33 -60 56 7 19 55 20 62 0 4 -10 20 -15 45 -15 42 0 44 2 29 31
-26 48 -121 64 -177 30z"/>
<path d="M1043 280 c-86 -52 -97 -181 -22 -245 25 -21 41 -25 91 -25 55 0 63
3 94 34 19 19 34 39 34 45 0 19 -66 12 -85 -9 -24 -27 -70 -26 -89 2 -31 44
-23 48 84 48 l100 0 0 33 c0 104 -119 171 -207 117z m93 -38 c11 -7 34 -45 34
-56 0 -3 -27 -6 -60 -6 -33 0 -60 3 -60 6 0 11 23 49 34 56 6 4 18 8 26 8 8 0
20 -4 26 -8z"/>
<path d="M1354 285 c-28 -15 -54 -51 -54 -75 0 -6 14 -10 31 -10 21 0 37 8 51
25 32 41 78 27 78 -22 0 -19 -5 -23 -32 -23 -52 0 -106 -19 -123 -43 -23 -32
-19 -80 8 -105 28 -27 107 -31 131 -7 8 8 17 15 20 15 3 0 6 -7 6 -15 0 -11
11 -15 36 -15 l36 0 -4 120 c-3 107 -5 122 -25 141 -29 29 -115 36 -159 14z
m106 -168 c0 -37 -22 -59 -55 -55 -24 2 -31 8 -33 31 -3 21 2 29 20 36 43 18
68 13 68 -12z"/>
<path d="M1715 274 c-24 -26 -25 -26 -25 -5 0 18 -6 21 -40 21 l-40 0 0 -140
0 -140 40 0 40 0 0 88 c0 99 12 126 60 137 25 5 30 11 30 36 0 38 -31 39 -65
3z"/>
<path d="M1881 282 c-89 -48 -96 -205 -12 -255 36 -21 112 -22 151 -2 25 13
60 60 60 80 0 3 -18 5 -40 5 -22 0 -40 -4 -40 -9 0 -18 -31 -41 -55 -41 -35 0
-55 36 -55 97 0 57 23 93 58 93 21 0 52 -29 52 -48 0 -7 16 -12 40 -12 44 0
47 7 25 49 -29 56 -120 77 -184 43z"/>
</g>
</svg>
